<?xml version="1.0" encoding="UTF-8" standalone="no"?>
<svg
   xmlns:dc="http://purl.org/dc/elements/1.1/"
   xmlns:cc="http://creativecommons.org/ns#"
   xmlns:rdf="http://www.w3.org/1999/02/22-rdf-syntax-ns#"
   xmlns:svg="http://www.w3.org/2000/svg"
   xmlns="http://www.w3.org/2000/svg"
   id="svg8"
   version="1.1"
   viewBox="0 0 210 297"
   height="297mm"
   width="210mm">
  <defs
     id="defs2" />
  <metadata
     id="metadata5">
    <rdf:RDF>
      <cc:Work
         rdf:about="">
        <dc:format>image/svg+xml</dc:format>
        <dc:type
           rdf:resource="http://purl.org/dc/dcmitype/StillImage" />
        <dc:title></dc:title>
      </cc:Work>
    </rdf:RDF>
  </metadata>
  <g
     id="layer1">
     <path
       id="svg_region_1"
       d="M 30.238094,13.517857 C 43.36719,8.7337706 67.393104,19.502227 85.044642,27.502975 95.678905,31.325629 105.18751,41.245177 102.80952,49.80357 85.857986,59.745739 69.326876,68.260898 51.404761,76.261903 42.788592,80.289428 32.381895,82.745656 25.702381,81.931546 19.07916,80.202206 12.672275,71.937882 9.0714285,58.119047 9.0746451,47.893227 5.9118715,37.517718 11.717262,28.258928 14.458573,21.266762 22.58786,18.546454 30.238094,13.517857 Z"
       style="fill:#d0f2f3;fill-opacity:1;stroke:none;stroke-width:0.26458332px;stroke-linecap:butt;stroke-linejoin:miter;stroke-opacity:1" />
    <path
       id="svg_region_2"
       d="m 123.59822,12.005952 c 24.21281,-1.054217 45.02962,8.909967 64.25595,23.8125 4.53571,5.039682 4.53571,10.079364 -1e-5,15.119046 -9.94132,5.563742 -15.91203,17.745154 -23.05654,27.970239 -5.29167,6.501106 -10.58333,8.478619 -15.875,7.9375 -6.17361,0.384313 -12.34722,0.196713 -18.52084,-3.401787 -9.24216,-6.820056 -17.84439,-9.800476 -26.08035,-10.583331 -3.48765,-1.468974 -6.606578,-3.122307 -4.15774,-7.559524 v 0 c 19.55806,-13.047501 7.81566,-18.269888 4.91369,-25.702382 -1.96314,-9.662894 -12.544811,-25.583773 18.52084,-27.592261 z"
       style="fill:#ecf29f;fill-opacity:1;stroke:none;stroke-width:0.26458332px;stroke-linecap:butt;stroke-linejoin:miter;stroke-opacity:1" />
    <path
       id="svg_region_3"
       d="m 50.648808,103.47619 c 15.817385,32.81584 8.14412,27.69568 10.96131,45.73512 16.630951,12.44508 54.428572,16.0784 81.642852,-7.55953 2.43373,-11.37811 8.1525,-21.61028 -31.37202,-47.624994 C 83.56288,83.315653 49.663191,82.423276 50.648808,103.47619 Z"
       style="fill:#edf2a1;fill-opacity:1;stroke:none;stroke-width:0.26458332px;stroke-linecap:butt;stroke-linejoin:miter;stroke-opacity:1" />
    <path
       id="svg_region_4"
       d="m 46.491072,205.15178 c 2.311246,-16.65297 10.223629,-28.01597 30.61607,-27.59226 28.955228,-3.33874 54.725578,-2.63514 57.830358,26.83631 0.53799,25.42953 -6.79402,45.19267 -31.37203,52.53869 -14.052388,1.39047 -28.062468,2.57998 -38.175589,-14.74107 -6.63406,-12.60736 -20.337816,-30.71337 -18.898809,-37.04167 z"
       style="fill:#d2e497;fill-opacity:1;stroke:none;stroke-width:0.26458332px;stroke-linecap:butt;stroke-linejoin:miter;stroke-opacity:1" />
    <path
       id="svg_region_5"
       d="m 175.38095,108.76785 c 21.63092,7.49221 29.11609,59.5318 -1.88988,82.39881 -16.08802,2.42724 -27.42594,-1.01329 -26.45833,-19.65476 6.93546,-13.4152 11.20545,-28.16315 12.09523,-44.60119 -0.51023,-14.4977 16.25298,-18.14286 16.25298,-18.14286 z"
       style="fill:#d2d0b1;fill-opacity:1;stroke:none;stroke-width:0.26458332px;stroke-linecap:butt;stroke-linejoin:miter;stroke-opacity:1" />
  </g>
</svg>
